<?xml version="1.0" encoding="UTF-8"?>
<svg width="200" height="200" viewBox="0 0 200 200" fill="none" xmlns="http://www.w3.org/2000/svg">
  <!-- Gradient background -->
  <defs>
    <linearGradient id="paint0_linear" x1="0" y1="0" x2="200" y2="200" gradientUnits="userSpaceOnUse">
      <stop offset="0" stop-color="#FF69B4"/>
      <stop offset="1" stop-color="#9370DB"/>
    </linearGradient>
    <filter id="shadow" x="-10%" y="-10%" width="120%" height="120%">
      <feDropShadow dx="0" dy="4" stdDeviation="4" flood-color="#000" flood-opacity="0.25"/>
    </filter>
  </defs>
  
  <!-- Main circle -->
  <circle cx="100" cy="100" r="90" fill="white" filter="url(#shadow)"/>
  
  <!-- Flower petals -->
  <path d="M100 40C110 60 130 60 140 40C150 60 170 60 180 80C160 90 160 110 180 120C160 130 150 150 140 160C130 140 110 140 100 160C90 140 70 140 60 160C50 150 40 130 20 120C40 110 40 90 20 80C30 60 50 60 60 40C70 60 90 60 100 40Z" fill="url(#paint0_linear)"/>
  
  <!-- Center circle -->
  <circle cx="100" cy="100" r="25" fill="white"/>
  
  <!-- Spa icon in center -->
  <path d="M100 85C95 90 90 100 90 110C90 115 95 120 100 120C105 120 110 115 110 110C110 100 105 90 100 85Z" fill="#FF69B4"/>
  <path d="M85 100C90 95 100 90 110 90C115 90 120 95 120 100C120 105 115 110 110 110C100 110 90 105 85 100Z" fill="#9370DB"/>
</svg>
